<svg width="391" height="80" viewBox="0 0 391 80" fill="none" xmlns="http://www.w3.org/2000/svg">
<g clip-path="url(#clip0_203_2)">
<path d="M0.56983 41.6398C1.28212 43.0658 2.56424 43.9214 4.27373 43.9214C4.98602 43.9214 5.55585 43.7788 6.26813 43.4936L71.3713 8.84121C72.3685 8.2708 73.0807 7.55779 73.3657 6.41697C73.6506 5.27615 73.6506 4.27793 73.0807 3.27971C72.5109 2.28149 71.7986 1.56848 70.659 1.28328C69.6618 0.998071 68.5221 0.998071 67.5249 1.56848L25.215 23.8145V5.13354C25.215 3.99272 24.7876 2.99451 23.9329 2.13889C23.0781 1.28328 22.0809 0.855469 20.9413 0.855469C19.8016 0.855469 18.8044 1.28328 17.9497 2.13889C17.2374 2.99451 16.81 3.99272 16.81 5.13354V28.2351L8.12008 32.7984V5.84656C8.12008 4.70574 7.69271 3.70752 6.83796 2.8519C5.98322 1.99629 4.98602 1.56848 3.84635 1.56848C2.70669 1.56848 1.70949 1.99629 0.854745 2.8519C0.427373 3.85012 0 4.70574 0 5.84656V39.3581C0 40.0712 0 40.7842 0.427373 41.4972H0.56983V41.6398ZM40.6004 44.064L71.3713 27.8073C72.3685 27.2369 73.0807 26.3813 73.3657 25.3831C73.6506 24.2423 73.6506 23.2441 73.0807 22.2458C72.5109 21.2476 71.7986 20.5346 70.659 20.2494C69.6618 19.9642 68.5221 19.9642 67.5249 20.5346L2.27932 54.7592C0.56983 55.6148 0.284915 57.0408 0.142458 59.0373V75.7218C0.142458 76.8626 0.427373 77.8608 1.28212 78.7164C2.13686 79.572 3.13407 79.9999 4.27373 79.9999C5.41339 79.9999 6.41059 79.572 7.26534 78.7164C8.12008 77.8608 8.54746 76.8626 8.54746 75.7218V60.8911L32.7652 48.0569V48.3421L33.1926 48.4847L67.3824 79.0016C68.0947 79.572 68.9495 79.8572 69.8042 79.8572C71.2288 79.8572 72.3685 79.2868 73.0807 78.146C73.793 77.2904 74.0779 76.1496 73.793 75.0088C73.6506 73.8679 73.0807 73.0123 72.226 72.2993L40.7429 43.7788L40.6004 44.064Z" fill="#313567"/>
<path d="M101.999 41.212C101.145 41.212 100.29 40.9267 99.8626 40.3563C99.2927 39.7859 99.0078 39.0729 99.0078 38.2173V4.1353C99.0078 3.27969 99.2927 2.56667 99.8626 1.99626C100.432 1.42585 101.145 1.14065 102.142 1.14065C102.997 1.14065 103.709 1.42585 104.279 1.99626C104.849 2.56667 105.133 3.27969 105.133 4.1353V38.2173C105.133 39.0729 104.849 39.7859 104.279 40.3563C103.709 40.9267 102.997 41.212 102.142 41.212H101.999ZM127.214 1.14065C127.927 1.14065 128.639 1.42585 129.066 2.13887C129.494 2.85188 129.779 3.42229 129.779 3.9927C129.779 4.56311 129.494 5.27612 128.924 5.84653L104.421 29.2333L104.136 22.3884L124.935 2.13887C125.647 1.42585 126.502 0.998047 127.214 0.998047V1.14065ZM126.929 41.3546C126.075 41.3546 125.362 40.9267 124.793 40.2137L110.547 21.9606L114.963 17.5399L129.494 36.3635C129.494 36.3635 130.206 37.6469 130.206 38.3599C130.206 39.2155 129.921 40.0711 129.209 40.4989C128.497 40.9267 127.784 41.3546 126.929 41.3546Z" fill="#313567" stroke="#313567" stroke-width="0.1" stroke-linecap="round" stroke-linejoin="round"/>
<path d="M142.315 26.3813C141.46 26.3813 140.89 26.0961 140.321 25.5257C139.751 24.9553 139.466 24.2423 139.466 23.5293C139.466 22.8163 139.751 21.9606 140.321 21.5328C140.89 21.105 141.603 20.8198 142.315 20.8198H152.999C153.854 20.8198 154.424 21.105 154.994 21.6754C155.564 22.2458 155.848 22.9589 155.848 23.8145C155.848 24.6701 155.564 25.2405 154.994 25.8109C154.424 26.3813 153.712 26.5239 152.999 26.5239H142.315V26.3813Z" fill="#313567" stroke="#313567" stroke-width="0.1" stroke-linecap="round" stroke-linejoin="round"/>
<path d="M189.754 35.6504C190.609 35.6504 191.321 35.9356 191.891 36.506C192.46 37.0765 192.745 37.6469 192.745 38.5025C192.745 39.3581 192.46 39.9285 191.891 40.4989C191.321 41.0693 190.609 41.3545 189.754 41.3545H170.664C169.81 41.3545 169.097 41.0693 168.528 40.4989C167.958 39.9285 167.673 39.2155 167.673 38.3599V4.13528C167.673 3.27966 167.958 2.56665 168.528 1.99624C169.097 1.42583 169.81 1.14062 170.807 1.14062C171.519 1.14062 172.231 1.42583 172.801 1.99624C173.371 2.56665 173.656 3.27966 173.656 4.13528V36.506L172.516 35.5078H189.754V35.6504Z" fill="#313567" stroke="#313567" stroke-width="0.1" stroke-linecap="round" stroke-linejoin="round"/>
<path d="M209.555 38.3599C209.555 39.2155 209.128 39.9285 208.558 40.4989C207.988 41.0693 207.276 41.3545 206.421 41.3545C205.567 41.3545 204.712 41.0693 204.284 40.4989C203.715 39.9285 203.43 39.2155 203.43 38.3599V4.13528C203.43 3.27966 203.715 2.56665 204.284 1.99624C204.854 1.42583 205.567 1.14062 206.564 1.14062C207.276 1.14062 207.988 1.42583 208.558 1.99624C209.128 2.56665 209.413 3.27966 209.413 4.13528V38.2173L209.555 38.3599Z" fill="#313567" stroke="#313567" stroke-width="0.1" stroke-linecap="round" stroke-linejoin="round"/>
<path d="M252.862 1.28323C253.575 1.28323 254.287 1.56843 254.714 1.99624C255.142 2.56665 255.427 3.13706 255.427 3.85007V38.2173C255.427 39.0729 255.142 39.7859 254.572 40.3563C254.002 40.9267 253.29 41.2119 252.435 41.2119C252.008 41.2119 251.58 41.2119 251.153 40.9267C250.726 40.6415 250.441 40.4989 250.156 40.3563L226.793 9.98198L228.075 9.12636V38.5025C228.075 38.5025 227.79 39.7859 227.362 40.3563C226.793 40.9267 226.223 41.0693 225.511 41.0693C224.798 41.0693 224.086 40.7841 223.659 40.3563C223.231 39.9285 222.946 39.2155 222.946 38.5025V4.13528C222.946 3.27966 223.231 2.56665 223.801 1.99624C224.371 1.42583 225.083 1.14062 225.938 1.14062C226.365 1.14062 226.793 1.14063 227.22 1.42583C227.647 1.56843 228.075 1.85364 228.217 2.13884L251.01 31.9428L250.156 32.7984V3.99267C250.156 3.27966 250.441 2.56665 250.868 2.13884C251.295 1.71104 252.008 1.42583 252.72 1.42583L252.862 1.28323Z" fill="#313567" stroke="#313567" stroke-width="0.1" stroke-linecap="round" stroke-linejoin="round"/>
<path d="M287.621 41.7824C284.63 41.7824 281.923 41.212 279.501 40.2138C277.079 39.2156 274.8 37.6469 272.948 35.7931C271.096 33.9393 269.529 31.6576 268.532 29.2334C267.535 26.8091 266.965 24.0997 266.965 21.2477C266.965 18.3956 267.535 15.6862 268.532 13.2619C269.672 10.8377 271.096 8.55603 272.948 6.7022C274.8 4.84836 277.079 3.42234 279.501 2.28152C281.923 1.2833 284.63 0.712891 287.621 0.712891C289.473 0.712891 291.325 0.855493 293.035 1.2833C294.744 1.71111 296.311 2.28152 297.736 3.13713C298.163 3.42234 298.59 3.70754 298.875 4.13535C299.16 4.56316 299.16 4.99097 299.16 5.41877C299.16 6.13179 298.875 6.8448 298.306 7.41521C297.736 7.98562 297.166 8.27082 296.311 8.27082C296.026 8.27082 295.741 8.27082 295.456 8.27082C295.171 8.27082 294.887 8.12822 294.602 7.98562C293.462 7.55781 292.465 7.13 291.183 6.8448C290.043 6.55959 288.761 6.41699 287.336 6.41699C284.63 6.41699 282.065 7.13 279.928 8.41342C277.792 9.69685 275.94 11.5507 274.658 13.6897C273.375 15.9714 272.806 18.3956 272.806 21.2477C272.806 24.0997 273.375 26.5239 274.658 28.8056C275.94 31.0872 277.649 32.7985 279.928 34.2245C282.208 35.5079 284.63 36.2209 287.336 36.2209C288.618 36.2209 290.043 36.0783 291.61 35.7931C293.035 35.5079 294.317 35.0801 295.314 34.5097L294.887 36.0783V25.2405L295.741 26.0961H288.333C287.479 26.0961 286.766 25.8109 286.197 25.2405C285.627 24.6701 285.342 23.9571 285.342 23.2441C285.342 22.5311 285.627 21.6755 286.197 21.2477C286.766 20.6772 287.479 20.392 288.333 20.392H298.163C299.018 20.392 299.73 20.6772 300.3 21.2477C300.87 21.8181 301.155 22.5311 301.155 23.3867V36.0783C301.155 36.0783 301.012 37.2191 300.727 37.6469C300.442 38.0747 300.157 38.3599 299.73 38.6452C298.021 39.6434 296.026 40.499 294.032 41.212C291.895 41.925 289.758 42.2102 287.621 42.2102V41.7824Z" fill="#313567" stroke="#313567" stroke-width="0.1" stroke-linecap="round" stroke-linejoin="round"/>
<path d="M341.328 1.2832C342.182 1.2832 342.752 1.56841 343.322 2.13882C343.892 2.70923 344.034 3.42224 344.034 4.13525V25.8108C344.034 28.8055 343.322 31.5149 342.04 33.9392C340.758 36.3634 338.906 38.2172 336.627 39.5007C334.347 40.7841 331.641 41.4971 328.649 41.4971C325.657 41.4971 322.951 40.7841 320.671 39.5007C318.392 38.2172 316.54 36.2208 315.116 33.9392C313.691 31.6575 313.121 28.8055 313.121 25.8108V4.13525C313.121 3.27964 313.406 2.70923 313.976 2.13882C314.546 1.56841 315.258 1.2832 316.255 1.2832C316.967 1.2832 317.68 1.56841 318.25 2.13882C318.819 2.70923 319.104 3.42224 319.104 4.13525V25.8108C319.104 27.8073 319.532 29.5185 320.386 31.0871C321.241 32.6558 322.523 33.7966 323.948 34.6522C325.372 35.5078 326.939 35.9356 328.649 35.9356C330.358 35.9356 332.068 35.5078 333.635 34.6522C335.202 33.7966 336.342 32.6558 337.339 31.0871C338.336 29.5185 338.763 27.8073 338.763 25.8108V4.13525C338.763 3.27964 339.048 2.70923 339.476 2.13882C339.903 1.56841 340.615 1.2832 341.47 1.2832H341.328Z" fill="#313567" stroke="#313567" stroke-width="0.1" stroke-linecap="round" stroke-linejoin="round"/>
<path d="M371.814 8.69856L358.993 39.5007C358.993 39.5007 358.423 40.6415 357.996 40.9267C357.568 41.2119 356.998 41.4971 356.428 41.4971C355.574 41.4971 354.861 41.2119 354.434 40.7841C354.007 40.3563 353.864 39.6433 353.864 38.9303C353.864 38.6451 353.864 38.3599 354.007 38.0747L368.537 2.99446C368.537 2.99446 369.107 1.85364 369.677 1.56843C370.247 1.28323 370.817 1.14062 371.387 1.14062C371.956 1.14062 372.526 1.28323 373.096 1.71103C373.666 1.99624 373.951 2.56665 374.236 3.13706L388.481 37.6469C388.481 37.6469 388.766 38.3599 388.766 38.7877C388.766 39.6433 388.481 40.3563 387.912 40.7841C387.342 41.3545 386.772 41.4971 386.06 41.4971C385.49 41.4971 384.92 41.3545 384.493 40.9267C384.065 40.6415 383.638 40.0711 383.495 39.5007L370.532 8.84116H371.956L371.814 8.69856ZM361.272 31.3724L363.836 25.9535H379.934L380.931 31.3724H361.272Z" fill="#313567" stroke="#313567" stroke-width="0.1" stroke-linecap="round" stroke-linejoin="round"/>
<path d="M106.985 66.8804H109.265L114.963 79.8572H112.684L108.125 69.0194L103.566 79.8572H101.287L106.985 66.8804ZM104.136 75.0087H111.971V76.8625H104.136V75.0087Z" fill="#313567"/>
<path d="M120.377 66.8804H122.514V78.0034H128.07V79.8572H120.234V66.8804H120.377Z" fill="#313567"/>
<path d="M132.343 66.8804H134.765L138.326 78.5738H137.756L141.318 66.8804H143.454L147.016 78.5738H146.446L149.865 66.8804H152.144L147.728 79.8572H145.449L142.03 68.5916H142.6L139.181 79.8572H136.901L132.485 66.8804H132.343Z" fill="#313567"/>
<path d="M160.55 66.8804H162.829L168.527 79.8572H166.248L161.69 69.0194L157.131 79.8572H154.852L160.55 66.8804ZM157.701 75.0087H165.536V76.8625H157.701V75.0087Z" fill="#313567"/>
<path d="M171.376 66.8804H173.655L177.359 73.2975L180.921 66.8804H183.2L177.502 77.1477H177.217L171.518 66.8804H171.376ZM176.22 74.4383H178.356V79.8572H176.22V74.4383Z" fill="#313567"/>
<path d="M196.591 69.8751C196.591 69.8751 195.594 69.3046 195.166 69.162C194.739 69.0194 194.312 68.8768 193.884 68.7342C193.457 68.7342 193.03 68.7342 192.745 68.7342C192.175 68.7342 191.605 68.7342 191.178 69.162C190.75 69.4472 190.608 69.7324 190.608 70.3029C190.608 70.7307 190.608 71.0159 191.035 71.3011C191.32 71.5863 191.605 71.7289 192.032 71.8715C192.46 72.0141 192.887 72.1567 193.457 72.2993C194.027 72.2993 194.454 72.5845 195.024 72.7271C195.451 72.8697 196.021 73.1549 196.449 73.4401C196.876 73.7253 197.161 74.0105 197.446 74.5809C197.731 75.1513 197.873 75.5791 197.873 76.2922C197.873 77.0052 197.731 77.7182 197.303 78.2886C196.876 78.859 196.306 79.2868 195.594 79.572C194.882 79.8572 194.027 79.9998 193.03 79.9998C192.317 79.9998 191.747 79.9998 191.035 79.7146C190.465 79.572 189.753 79.2868 189.183 79.0016C188.613 78.7164 188.044 78.2886 187.616 77.8608L188.613 76.007C188.613 76.007 189.468 76.72 190.038 77.0052C190.608 77.2904 191.035 77.5756 191.605 77.7182C192.175 77.8608 192.602 78.0034 193.03 78.0034C193.742 78.0034 194.454 77.8608 194.882 77.5756C195.309 77.2904 195.451 76.8626 195.451 76.2922C195.451 75.8644 195.451 75.5792 195.024 75.2939C194.597 75.0087 194.454 74.8661 194.027 74.5809C193.599 74.4383 193.172 74.2957 192.602 74.1531C192.032 74.1531 191.605 73.8679 191.035 73.7253C190.465 73.5827 190.038 73.2975 189.611 73.0123C189.183 72.7271 188.898 72.4419 188.613 72.0141C188.328 71.5863 188.186 71.0159 188.186 70.3029C188.186 69.5898 188.328 68.8768 188.756 68.449C189.183 67.8786 189.753 67.4508 190.465 67.1656C191.178 66.8804 192.032 66.7378 192.887 66.7378C193.742 66.7378 194.597 66.7378 195.309 67.1656C196.164 67.4508 196.733 67.736 197.446 68.1638L196.591 70.0177V69.8751Z" fill="#313567"/>
<path d="M216.678 66.8804H218.957L224.655 79.8572H222.376L217.817 69.0194L213.259 79.8572H210.979L216.678 66.8804ZM213.829 75.0087H221.664V76.8625H213.829V75.0087Z" fill="#313567"/>
<path d="M246.594 69.8751C246.594 69.8751 245.597 69.3046 245.169 69.162C244.742 69.0194 244.315 68.8768 243.887 68.7342C243.46 68.7342 243.033 68.7342 242.748 68.7342C242.178 68.7342 241.608 68.7342 241.181 69.162C240.753 69.4472 240.611 69.7324 240.611 70.3029C240.611 70.7307 240.611 71.0159 241.038 71.3011C241.323 71.5863 241.608 71.7289 242.035 71.8715C242.463 72.0141 242.89 72.1567 243.46 72.2993C244.03 72.2993 244.457 72.5845 245.027 72.7271C245.454 72.8697 246.024 73.1549 246.451 73.4401C246.879 73.7253 247.164 74.0105 247.449 74.5809C247.734 75.1513 247.876 75.5791 247.876 76.2922C247.876 77.0052 247.734 77.7182 247.306 78.2886C246.879 78.859 246.309 79.2868 245.597 79.572C244.884 79.8572 244.03 79.9998 243.033 79.9998C242.32 79.9998 241.75 79.9998 241.038 79.7146C240.468 79.572 239.756 79.2868 239.186 79.0016C238.616 78.7164 238.047 78.2886 237.619 77.8608L238.616 76.007C238.616 76.007 239.471 76.72 240.041 77.0052C240.611 77.2904 241.038 77.5756 241.608 77.7182C242.178 77.8608 242.605 78.0034 243.033 78.0034C243.745 78.0034 244.457 77.8608 244.884 77.5756C245.312 77.2904 245.454 76.8626 245.454 76.2922C245.454 75.8644 245.454 75.5792 245.027 75.2939C244.6 75.0087 244.457 74.8661 244.03 74.5809C243.602 74.4383 243.175 74.2957 242.605 74.1531C242.035 74.1531 241.608 73.8679 241.038 73.7253C240.468 73.5827 240.041 73.2975 239.614 73.0123C239.186 72.7271 238.901 72.4419 238.616 72.0141C238.331 71.5863 238.189 71.0159 238.189 70.3029C238.189 69.5898 238.331 68.8768 238.759 68.449C239.186 67.8786 239.756 67.4508 240.468 67.1656C241.181 66.8804 242.035 66.7378 242.89 66.7378C243.745 66.7378 244.6 66.7378 245.312 67.1656C246.167 67.4508 246.736 67.736 247.449 68.1638L246.594 70.0177V69.8751Z" fill="#313567"/>
<path d="M252.435 66.8804H262.834V68.7342H258.703V79.8572H256.566V68.7342H252.435V66.8804Z" fill="#313567"/>
<path d="M268.532 66.8804H277.792V68.7342H270.669V72.4419H277.08V74.2957H270.669V78.0034H277.934V79.8572H268.39V66.8804H268.532Z" fill="#313567"/>
<path d="M289.473 66.8804C291.04 66.8804 292.322 67.3082 293.32 68.0212C294.174 68.7342 294.602 69.875 294.602 71.301C294.602 72.7271 294.174 73.8679 293.32 74.7235C292.465 75.5791 291.183 76.0069 289.473 76.0069H285.484L286.482 75.0087V79.9998H284.345V67.023H289.473V66.8804ZM289.473 74.0105C290.47 74.0105 291.183 73.7253 291.753 73.2975C292.322 72.8697 292.607 72.1567 292.607 71.301C292.607 70.4454 292.322 69.7324 291.753 69.3046C291.183 68.8768 290.47 68.7342 289.473 68.7342H285.627L286.624 67.736V75.0087L285.627 74.0105H289.473Z" fill="#313567"/>
<path d="M313.264 66.8804H315.543L321.241 79.8572H318.962L314.403 69.0194L309.845 79.8572H307.565L313.264 66.8804ZM310.415 75.0087H318.25V76.8625H310.415V75.0087Z" fill="#313567"/>
<path d="M326.655 66.8804H328.792V72.5845H335.63V66.8804H337.767V79.8572H335.63V74.4383H328.792V79.8572H326.655V66.8804Z" fill="#313567"/>
<path d="M345.032 66.8804H354.292V68.7342H347.169V72.4419H353.58V74.2957H347.169V78.0034H354.434V79.8572H344.89V66.8804H345.032Z" fill="#313567"/>
<path d="M364.976 66.8804H367.255L372.953 79.8572H370.674L366.115 69.0194L361.557 79.8572H359.277L364.976 66.8804ZM362.127 75.0087H369.962V76.8625H362.127V75.0087Z" fill="#313567"/>
<path d="M383.781 66.8804C384.778 66.8804 385.633 67.023 386.487 67.3082C387.342 67.5934 388.054 68.0212 388.624 68.5916C389.194 69.1621 389.764 69.8751 390.049 70.5881C390.334 71.3011 390.619 72.2993 390.619 73.1549C390.619 74.0105 390.476 75.0088 390.049 75.7218C389.764 76.5774 389.194 77.1478 388.624 77.7182C388.054 78.2886 387.342 78.7164 386.487 79.1442C385.633 79.4294 384.778 79.572 383.781 79.572H378.51V66.5952H383.781V66.8804ZM383.781 78.0034C383.781 78.0034 384.92 78.0034 385.49 77.7182C386.06 77.433 386.487 77.1478 386.915 76.72C387.342 76.2922 387.627 75.8644 387.912 75.294C388.197 74.7236 388.197 74.1531 388.197 73.4401C388.197 72.7271 388.197 72.1567 387.912 71.5863C387.627 71.0159 387.342 70.5881 386.915 70.1603C386.487 69.7325 386.06 69.4473 385.49 69.1621C384.92 68.8769 384.351 68.8769 383.638 68.8769H380.504V78.146H383.638L383.781 78.0034Z" fill="#313567"/>
</g>
<defs>
<clipPath id="clip0_203_2">
<rect width="390.476" height="80" fill="white"/>
</clipPath>
</defs>
</svg>
