<svg width="148" height="30" viewBox="0 0 148 30" fill="none" xmlns="http://www.w3.org/2000/svg">
<g clip-path="url(#clip0_203_32)">
<path d="M0.215899 15.4268C0.485774 15.9665 0.971547 16.2904 1.61925 16.2904C1.88912 16.2904 2.10502 16.2364 2.37489 16.1285L27.0414 3.06656C27.4192 2.85066 27.6891 2.58078 27.797 2.14898C27.905 1.71718 27.905 1.33936 27.6891 0.961537C27.4732 0.583713 27.2033 0.313839 26.7715 0.20589C26.3937 0.0979399 25.9619 0.0979399 25.5841 0.313839L9.55355 8.73391V1.60924C9.55355 1.17744 9.39162 0.799613 9.06777 0.475764C8.74392 0.151915 8.3661 -0.0100098 7.9343 -0.0100098C7.5025 -0.0100098 7.12468 0.151915 6.80083 0.475764C6.53095 0.799613 6.36903 1.17744 6.36903 1.60924V10.3532L3.07657 12.0804V1.93308C3.07657 1.50129 2.91464 1.12346 2.59079 0.799613C2.26694 0.475764 1.88912 0.313839 1.45732 0.313839C1.02552 0.313839 0.647698 0.475764 0.323849 0.799613C0.161924 1.12346 0 1.50129 0 1.93308V14.6172C0 14.887 0 15.1569 0.161924 15.4268H0.215899ZM15.3828 16.3444L27.0414 10.1912C27.4192 9.97533 27.6891 9.65149 27.797 9.27366C27.905 8.84186 27.905 8.46404 27.6891 8.08622C27.4732 7.70839 27.2033 7.43852 26.7715 7.33057C26.3937 7.22262 25.9619 7.22262 25.5841 7.43852L0.863597 20.4465C0.215899 20.7703 0.10795 21.3101 0.0539748 22.0657V28.3808C0.0539748 28.8126 0.161925 29.1904 0.485774 29.5142C0.809623 29.8381 1.18745 30 1.61925 30C2.05104 30 2.42887 29.8381 2.75272 29.5142C3.07657 29.1904 3.23849 28.8126 3.23849 28.3808V22.7674L12.4142 17.9096V18.0176L12.5761 18.0716L25.5301 29.6222C25.8 29.8381 26.1238 29.946 26.4477 29.946C26.9874 29.946 27.4192 29.7301 27.6891 29.2983C27.959 28.9745 28.0669 28.5427 27.959 28.1109C27.905 27.6791 27.6891 27.3552 27.3652 27.0854L15.4368 16.2904L15.3828 16.3444Z" fill="#313567"/>
<path d="M38.6471 21.7956C38.3233 21.7956 37.9994 21.6877 37.8375 21.4718C37.6216 21.2559 37.5137 20.986 37.5137 20.6621V7.76215C37.5137 7.4383 37.6216 7.16843 37.8375 6.95253C38.0534 6.73663 38.3233 6.62868 38.7011 6.62868C39.025 6.62868 39.2948 6.73663 39.5107 6.95253C39.7266 7.16843 39.8346 7.4383 39.8346 7.76215V20.6621C39.8346 20.986 39.7266 21.2559 39.5107 21.4718C39.2948 21.6877 39.025 21.7956 38.7011 21.7956H38.6471ZM48.1467 6.62868C48.4166 6.62868 48.6865 6.73663 48.8484 7.00651C49.0103 7.27638 49.1183 7.49228 49.1183 7.70818C49.1183 7.92408 49.0103 8.19395 48.7944 8.40985L39.5107 17.2617L39.4028 14.6709L47.2831 7.00651C47.553 6.73663 47.8768 6.57471 48.1467 6.57471V6.62868ZM48.0388 21.8496C47.7149 21.8496 47.445 21.6877 47.2291 21.4178L41.8317 14.509L43.5049 12.8358L49.0103 19.9605C49.0103 19.9605 49.2802 20.4462 49.2802 20.7161C49.2802 21.04 49.1722 21.3638 48.9024 21.5257C48.6325 21.6877 48.3626 21.8496 48.0388 21.8496Z" fill="#313567" stroke="#313567" stroke-width="0.1" stroke-linecap="round" stroke-linejoin="round"/>
<path d="M53.9213 16.1817C53.5974 16.1817 53.3815 16.0737 53.1656 15.8578C52.9497 15.6419 52.8418 15.3721 52.8418 15.1022C52.8418 14.8323 52.9497 14.5085 53.1656 14.3465C53.3815 14.1846 53.6514 14.0767 53.9213 14.0767H57.9694C58.2933 14.0767 58.5092 14.1846 58.7251 14.4005C58.941 14.6164 59.0489 14.8863 59.0489 15.2101C59.0489 15.534 58.941 15.7499 58.7251 15.9658C58.5092 16.1817 58.2393 16.2357 57.9694 16.2357H53.9213V16.1817Z" fill="#313567" stroke="#313567" stroke-width="0.1" stroke-linecap="round" stroke-linejoin="round"/>
<path d="M71.8973 19.6908C72.2212 19.6908 72.4911 19.7988 72.707 20.0147C72.9229 20.2306 73.0308 20.4465 73.0308 20.7703C73.0308 21.0942 72.9229 21.3101 72.707 21.526C72.4911 21.7419 72.2212 21.8498 71.8973 21.8498H64.6647C64.3409 21.8498 64.071 21.7419 63.8551 21.526C63.6392 21.3101 63.5312 21.0402 63.5312 20.7163V7.76238C63.5312 7.43853 63.6392 7.16865 63.8551 6.95275C64.071 6.73686 64.3409 6.62891 64.7187 6.62891C64.9886 6.62891 65.2584 6.73686 65.4743 6.95275C65.6902 7.16865 65.7982 7.43853 65.7982 7.76238V20.0147L65.3664 19.6368H71.8973V19.6908Z" fill="#313567" stroke="#313567" stroke-width="0.1" stroke-linecap="round" stroke-linejoin="round"/>
<path d="M79.3981 20.6624C79.3981 20.9862 79.2361 21.2561 79.0202 21.472C78.8043 21.6879 78.5345 21.7958 78.2106 21.7958C77.8868 21.7958 77.5629 21.6879 77.401 21.472C77.1851 21.2561 77.0771 20.9862 77.0771 20.6624V7.76238C77.0771 7.43853 77.1851 7.16865 77.401 6.95275C77.6169 6.73686 77.8868 6.62891 78.2646 6.62891C78.5345 6.62891 78.8043 6.73686 79.0202 6.95275C79.2361 7.16865 79.3441 7.43853 79.3441 7.76238V20.6624H79.3981Z" fill="#313567" stroke="#313567" stroke-width="0.1" stroke-linecap="round" stroke-linejoin="round"/>
<path d="M95.8074 6.68288C96.0772 6.68288 96.3471 6.79083 96.509 6.95275C96.671 7.16865 96.7789 7.38455 96.7789 7.65443V20.6624C96.7789 20.9862 96.671 21.2561 96.4551 21.472C96.2392 21.6879 95.9693 21.7958 95.6454 21.7958C95.4835 21.7958 95.3216 21.7958 95.1597 21.6879C94.9977 21.5799 94.8898 21.526 94.7818 21.472L85.93 9.97535L86.4158 9.6515V20.7703C86.4158 20.7703 86.3078 21.2561 86.1459 21.472C85.93 21.6879 85.7141 21.7419 85.4442 21.7419C85.1743 21.7419 84.9045 21.6339 84.7425 21.472C84.5806 21.3101 84.4727 21.0402 84.4727 20.7703V7.76238C84.4727 7.43853 84.5806 7.16865 84.7965 6.95275C85.0124 6.73686 85.2823 6.62891 85.6061 6.62891C85.7681 6.62891 85.93 6.62891 86.0919 6.73686C86.2538 6.79083 86.4158 6.89878 86.4697 7.00673L95.1057 18.2875L94.7818 18.6113V7.7084C94.7818 7.43853 94.8898 7.16865 95.0517 7.00673C95.2137 6.84481 95.4835 6.73686 95.7534 6.73686L95.8074 6.68288Z" fill="#313567" stroke="#313567" stroke-width="0.1" stroke-linecap="round" stroke-linejoin="round"/>
<path d="M108.977 22.0115C107.843 22.0115 106.818 21.7956 105.9 21.4178C104.983 21.04 104.119 20.4463 103.417 19.7446C102.716 19.0429 102.122 18.1793 101.744 17.2618C101.366 16.3442 101.15 15.3187 101.15 14.2392C101.15 13.1597 101.366 12.1342 101.744 11.2166C102.176 10.299 102.716 9.43541 103.417 8.73374C104.119 8.03207 104.983 7.49232 105.9 7.06052C106.818 6.6827 107.843 6.4668 108.977 6.4668C109.678 6.4668 110.38 6.52077 111.028 6.6827C111.675 6.84462 112.269 7.06052 112.809 7.38437C112.971 7.49232 113.133 7.60027 113.241 7.76219C113.349 7.92412 113.349 8.08604 113.349 8.24797C113.349 8.51784 113.241 8.78771 113.025 9.00361C112.809 9.21951 112.593 9.32746 112.269 9.32746C112.161 9.32746 112.053 9.32746 111.945 9.32746C111.837 9.32746 111.729 9.27349 111.622 9.21951C111.19 9.05759 110.812 8.89566 110.326 8.78771C109.894 8.67976 109.409 8.62579 108.869 8.62579C107.843 8.62579 106.872 8.89566 106.062 9.38144C105.252 9.86721 104.551 10.5689 104.065 11.3785C103.579 12.2421 103.363 13.1597 103.363 14.2392C103.363 15.3187 103.579 16.2362 104.065 17.0998C104.551 17.9634 105.199 18.6111 106.062 19.1509C106.926 19.6367 107.843 19.9065 108.869 19.9065C109.355 19.9065 109.894 19.8526 110.488 19.7446C111.028 19.6367 111.514 19.4747 111.891 19.2588L111.729 19.8526V15.7505L112.053 16.0743H109.247C108.923 16.0743 108.653 15.9664 108.437 15.7505C108.221 15.5346 108.113 15.2647 108.113 14.9948C108.113 14.7249 108.221 14.4011 108.437 14.2392C108.653 14.0233 108.923 13.9153 109.247 13.9153H112.971C113.295 13.9153 113.565 14.0233 113.781 14.2392C113.996 14.4551 114.104 14.7249 114.104 15.0488V19.8526C114.104 19.8526 114.05 20.2844 113.942 20.4463C113.834 20.6082 113.727 20.7162 113.565 20.8241C112.917 21.2019 112.161 21.5258 111.406 21.7957C110.596 22.0655 109.786 22.1735 108.977 22.1735V22.0115Z" fill="#313567" stroke="#313567" stroke-width="0.1" stroke-linecap="round" stroke-linejoin="round"/>
<path d="M129.327 6.62891C129.651 6.62891 129.866 6.73686 130.082 6.95275C130.298 7.16865 130.352 7.43853 130.352 7.7084V15.9126C130.352 17.046 130.082 18.0716 129.597 18.9891C129.111 19.9067 128.409 20.6084 127.545 21.0942C126.682 21.5799 125.656 21.8498 124.523 21.8498C123.389 21.8498 122.364 21.5799 121.5 21.0942C120.637 20.6084 119.935 19.8527 119.395 18.9891C118.856 18.1255 118.64 17.046 118.64 15.9126V7.7084C118.64 7.38455 118.748 7.16865 118.964 6.95275C119.179 6.73686 119.449 6.62891 119.827 6.62891C120.097 6.62891 120.367 6.73686 120.583 6.95275C120.799 7.16865 120.907 7.43853 120.907 7.7084V15.9126C120.907 16.6682 121.069 17.3159 121.392 17.9096C121.716 18.5034 122.202 18.9352 122.742 19.259C123.281 19.5829 123.875 19.7448 124.523 19.7448C125.171 19.7448 125.818 19.5829 126.412 19.259C127.006 18.9352 127.438 18.5034 127.815 17.9096C128.193 17.3159 128.355 16.6682 128.355 15.9126V7.7084C128.355 7.38455 128.463 7.16865 128.625 6.95275C128.787 6.73686 129.057 6.62891 129.381 6.62891H129.327Z" fill="#313567" stroke="#313567" stroke-width="0.1" stroke-linecap="round" stroke-linejoin="round"/>
<path d="M140.873 9.48957L136.015 21.1481C136.015 21.1481 135.799 21.5799 135.638 21.6879C135.476 21.7958 135.26 21.9038 135.044 21.9038C134.72 21.9038 134.45 21.7958 134.288 21.6339C134.126 21.472 134.072 21.2021 134.072 20.9322C134.072 20.8243 134.072 20.7163 134.126 20.6084L139.632 7.33058C139.632 7.33058 139.848 6.89878 140.063 6.79083C140.279 6.68288 140.495 6.62891 140.711 6.62891C140.927 6.62891 141.143 6.68288 141.359 6.84481C141.575 6.95276 141.683 7.16865 141.791 7.38455L147.188 20.4465C147.188 20.4465 147.296 20.7163 147.296 20.8783C147.296 21.2021 147.188 21.472 146.972 21.6339C146.756 21.8498 146.54 21.9038 146.271 21.9038C146.055 21.9038 145.839 21.8498 145.677 21.6879C145.515 21.5799 145.353 21.364 145.299 21.1481L140.387 9.54355H140.927L140.873 9.48957ZM136.879 18.0716L137.851 16.0205H143.95L144.327 18.0716H136.879Z" fill="#313567" stroke="#313567" stroke-width="0.1" stroke-linecap="round" stroke-linejoin="round"/>
</g>
<defs>
<clipPath id="clip0_203_32">
<rect width="148" height="30" fill="white"/>
</clipPath>
</defs>
</svg>
