<svg width="855" height="424" viewBox="0 0 855 424" fill="none" xmlns="http://www.w3.org/2000/svg">
<circle cx="43.6974" cy="43.6974" r="43.6974" transform="matrix(-1 0 0 1 276.75 39.0395)" fill="#FFF1D2"/>
<circle cx="36.4145" cy="36.4145" r="36.4145" transform="matrix(-1 0 0 1 215.25 18)" fill="#FFF1D2"/>
<circle cx="36.4145" cy="36.4145" r="36.4145" transform="matrix(-1 0 0 1 208.776 68.171)" fill="#FFF1D2"/>
<circle cx="36.4145" cy="36.4145" r="36.4145" transform="matrix(-1 0 0 1 161.843 48.75)" fill="#FFF1D2"/>
<circle cx="25.8947" cy="25.8947" r="25.8947" transform="matrix(-1 0 0 1 114.908 34.1842)" fill="#FFF1D2"/>
<circle cx="38.0329" cy="38.0329" r="38.0329" transform="matrix(-1 0 0 1 114.908 63.3158)" fill="#FFF1D2"/>
<circle cx="27.5132" cy="27.5132" r="27.5132" transform="matrix(-1 0 0 1 69.5928 40.6579)" fill="#FFF1D2"/>
<circle cx="27.5132" cy="27.5132" r="27.5132" transform="matrix(-1 0 0 1 55.0264 68.171)" fill="#FFF1D2"/>
<path d="M283.223 132.908C277.558 117.533 277.02 91.9079 276.75 83.546C261.106 94.3355 229.654 127.405 241.954 124.816C261.376 120.727 287.593 144.769 283.223 132.908Z" fill="#FFF1D2"/>
<path d="M79.418 72.3555C79.418 71.957 79.5703 71.6641 79.875 71.4766C80.1797 71.2891 80.5078 71.1953 80.8594 71.1953C81.1875 71.1953 81.4805 71.2891 81.7383 71.4766C81.9961 71.6406 82.1367 71.8867 82.1602 72.2148C83.2852 72.2148 84.2812 72.2266 85.1484 72.25C86.0391 72.2734 86.7891 72.3789 87.3984 72.5664C88.0078 72.7539 88.4648 73.0586 88.7695 73.4805C89.0977 73.8789 89.2617 74.4648 89.2617 75.2383C89.2617 75.9883 89.25 76.6562 89.2266 77.2422C89.2031 77.8281 89.1445 78.543 89.0508 79.3867C89.0508 79.4336 89.0391 79.4805 89.0156 79.5273C88.9922 79.5508 88.9805 79.5742 88.9805 79.5977C89.0039 79.668 89.0156 79.7852 89.0156 79.9492C89.0156 80.3242 88.8516 80.6172 88.5234 80.8281C88.2188 81.0156 87.832 81.1562 87.3633 81.25C86.918 81.3203 86.4141 81.3555 85.8516 81.3555C85.3125 81.3555 84.8203 81.3555 84.375 81.3555C83.7891 81.3555 83.2148 81.3672 82.6523 81.3906C82.0898 81.3906 81.5742 81.332 81.1055 81.2148C80.6602 81.0742 80.2852 80.8516 79.9805 80.5469C79.6992 80.2188 79.5352 79.7383 79.4883 79.1055C79.4414 78.6133 79.4062 78.0859 79.3828 77.5234C79.3828 76.9609 79.3828 76.375 79.3828 75.7656C79.3828 75.1797 79.3828 74.5938 79.3828 74.0078C79.4062 73.4219 79.418 72.8711 79.418 72.3555ZM82.125 74.7109C82.125 75.4141 82.1367 76.1406 82.1602 76.8906C82.1836 77.6406 82.2305 78.2617 82.3008 78.7539C82.7461 78.8008 83.168 78.8359 83.5664 78.8594C83.9648 78.8828 84.3633 78.8945 84.7617 78.8945C85.3477 78.8945 85.9219 78.8594 86.4844 78.7891C86.4609 78.4844 86.4727 78.1914 86.5195 77.9102C86.5664 77.6055 86.5898 77.3359 86.5898 77.1016V75.8008C86.543 75.4727 86.4727 75.2383 86.3789 75.0977C86.3086 74.957 86.2031 74.8633 86.0625 74.8164C85.9219 74.7695 85.7578 74.7461 85.5703 74.7461C85.3828 74.7461 85.1602 74.7227 84.9023 74.6758H83.707C83.4492 74.6758 83.1797 74.6875 82.8984 74.7109C82.6406 74.7344 82.3828 74.7344 82.125 74.7109ZM73.9336 84.7305C74.9648 84.8945 76.1016 85.0117 77.3438 85.082C78.6094 85.1523 79.9453 85.1875 81.3516 85.1875C82.5938 85.1875 83.8477 85.1641 85.1133 85.1172C86.3789 85.0469 87.6094 84.9531 88.8047 84.8359C90 84.7188 91.1367 84.5781 92.2148 84.4141C93.293 84.25 94.2773 84.0508 95.168 83.8164H95.2734C95.5078 83.8164 95.7188 83.9688 95.9062 84.2734C96.0938 84.5547 96.1875 84.8477 96.1875 85.1523C96.1875 85.6914 95.918 86.043 95.3789 86.207C94.2305 86.5352 92.9297 86.8047 91.4766 87.0156C90.0234 87.2031 88.4883 87.3555 86.8711 87.4727C86.8711 88.5039 86.8594 89.5469 86.8359 90.6016C86.8125 91.6562 86.7773 92.6055 86.7305 93.4492C86.6602 93.7539 86.4961 93.9648 86.2383 94.082C85.9805 94.1758 85.6992 94.2227 85.3945 94.2227C85.0898 94.2227 84.8086 94.1406 84.5508 93.9766C84.293 93.7891 84.1758 93.5664 84.1992 93.3086L84.3047 90.6719C84.3281 90.1094 84.3398 89.582 84.3398 89.0898C84.3633 88.5742 84.375 88.082 84.375 87.6133C83.8594 87.6367 83.3438 87.6602 82.8281 87.6836C82.3359 87.6836 81.8438 87.6836 81.3516 87.6836C79.875 87.6836 78.4805 87.6484 77.168 87.5781C75.8555 87.4844 74.707 87.3555 73.7227 87.1914C73.418 87.1445 73.1953 87.0273 73.0547 86.8398C72.9141 86.6289 72.8438 86.3945 72.8438 86.1367C72.8438 85.7852 72.9258 85.4688 73.0898 85.1875C73.2773 84.8828 73.5586 84.7305 73.9336 84.7305ZM78.1523 92.6055C78.1523 92.207 78.293 91.9141 78.5742 91.7266C78.8555 91.5391 79.1719 91.4453 79.5234 91.4453C79.9688 91.4453 80.2852 91.5859 80.4727 91.8672C80.6836 92.1484 80.8125 92.5 80.8594 92.9219C80.9297 93.3203 80.9531 93.7422 80.9297 94.1875C80.9297 94.6328 80.9531 95.0078 81 95.3125C81.0234 95.7344 81.0469 96.1562 81.0703 96.5781C81.1172 96.9766 81.1758 97.3867 81.2461 97.8086C81.6445 97.8789 82.1953 97.9375 82.8984 97.9844C83.6016 98.0547 84.3516 98.0898 85.1484 98.0898C85.9688 98.0898 86.7656 98.0664 87.5391 98.0195C88.3125 97.9727 88.9688 97.9492 89.5078 97.9492C89.8359 97.9492 90.082 98.0781 90.2461 98.3359C90.4102 98.5938 90.4922 98.8867 90.4922 99.2148C90.4922 99.6367 90.3516 99.9414 90.0703 100.129C89.7891 100.34 89.4258 100.469 88.9805 100.516C88.5352 100.586 88.043 100.609 87.5039 100.586C86.9883 100.586 86.4844 100.586 85.9922 100.586C84.9141 100.586 83.9297 100.586 83.0391 100.586C82.1719 100.586 81.4102 100.516 80.7539 100.375C80.1211 100.234 79.6172 100 79.2422 99.6719C78.8672 99.3438 78.6445 98.8633 78.5742 98.2305L78.293 95.4531C78.2461 95.0078 78.2109 94.5508 78.1875 94.082C78.1641 93.6133 78.1523 93.1211 78.1523 92.6055ZM107.367 77.9102C107.555 77.7227 107.801 77.6289 108.105 77.6289C108.621 77.6992 109.125 77.8867 109.617 78.1914C110.133 78.4727 110.59 78.8242 110.988 79.2461C111.387 79.6445 111.715 80.0898 111.973 80.582C112.23 81.0508 112.359 81.5312 112.359 82.0234C112.359 82.7734 112.219 83.4297 111.938 83.9922C111.68 84.5312 111.328 84.9883 110.883 85.3633C110.438 85.7148 109.945 85.9844 109.406 86.1719C108.867 86.3359 108.34 86.418 107.824 86.418C107.309 86.418 106.77 86.3359 106.207 86.1719C105.668 85.9844 105.176 85.7266 104.73 85.3984C104.285 85.0703 103.922 84.6602 103.641 84.168C103.359 83.6523 103.219 83.0664 103.219 82.4102C103.219 81.9883 103.312 81.5078 103.5 80.9688C103.711 80.4062 103.969 79.8906 104.273 79.4219C104.602 78.9297 104.965 78.5195 105.363 78.1914C105.762 77.8633 106.172 77.6992 106.594 77.6992C106.852 77.6992 107.109 77.7695 107.367 77.9102ZM107.367 79.9141C106.875 80.2656 106.523 80.6055 106.312 80.9336C106.102 81.2383 105.996 81.707 105.996 82.3398C105.996 82.8086 106.172 83.1953 106.523 83.5C106.875 83.8047 107.402 83.957 108.105 83.957C108.434 83.957 108.762 83.8047 109.09 83.5C109.418 83.1953 109.582 82.7734 109.582 82.2344C109.582 81.8594 109.523 81.5664 109.406 81.3555C109.312 81.1211 109.16 80.9336 108.949 80.793C108.762 80.6289 108.527 80.4883 108.246 80.3711C107.988 80.2539 107.695 80.1016 107.367 79.9141ZM120.059 77.1367C119.965 76.9023 119.918 76.7266 119.918 76.6094C119.918 76.2344 120.059 75.9297 120.34 75.6953C120.621 75.4609 120.938 75.3438 121.289 75.3438C121.688 75.3438 122.027 75.5195 122.309 75.8711C122.59 76.2227 122.824 76.6562 123.012 77.1719C123.223 77.6641 123.387 78.1914 123.504 78.7539C123.621 79.293 123.715 79.7617 123.785 80.1602C123.879 81.3555 123.938 82.5977 123.961 83.8867C124.008 85.1523 124.031 86.4297 124.031 87.7188C124.031 89.8047 123.996 91.7383 123.926 93.5195C123.902 93.9648 123.75 94.2812 123.469 94.4688C123.188 94.6328 122.883 94.7148 122.555 94.7148C122.227 94.7148 121.922 94.6211 121.641 94.4336C121.383 94.2227 121.254 93.9414 121.254 93.5898V89.4766C121.254 87.9062 121.242 86.3711 121.219 84.8711C121.195 83.3477 121.16 81.8945 121.113 80.5117L120.691 78.7891C120.621 78.5078 120.527 78.2266 120.41 77.9453C120.293 77.6641 120.176 77.3945 120.059 77.1367ZM102.621 90.707C102.902 90.7539 103.277 90.7773 103.746 90.7773C104.238 90.7773 104.801 90.7773 105.434 90.7773C106.395 90.7773 107.449 90.7656 108.598 90.7422C109.77 90.7188 110.918 90.6836 112.043 90.6367C113.191 90.5898 114.258 90.5312 115.242 90.4609C116.227 90.3672 117.035 90.2617 117.668 90.1445C117.715 90.1445 117.75 90.1445 117.773 90.1445C117.797 90.1211 117.832 90.1094 117.879 90.1094C118.207 90.1094 118.465 90.25 118.652 90.5312C118.863 90.7891 118.969 91.0586 118.969 91.3398C118.969 91.8086 118.641 92.1719 117.984 92.4297C117.328 92.6875 116.414 92.8867 115.242 93.0273C114.07 93.168 112.652 93.2617 110.988 93.3086C109.348 93.332 107.531 93.3438 105.539 93.3438C104.789 93.3438 104.145 93.3438 103.605 93.3438C103.066 93.3203 102.621 93.2617 102.27 93.168C101.918 93.0742 101.66 92.9336 101.496 92.7461C101.332 92.5352 101.25 92.2422 101.25 91.8672C101.25 91.5391 101.379 91.2695 101.637 91.0586C101.895 90.8242 102.223 90.707 102.621 90.707ZM134.262 78.8242C134.262 78.5664 134.402 78.3555 134.684 78.1914C134.988 78.0039 135.305 77.9102 135.633 77.9102C135.914 77.9102 136.172 77.9688 136.406 78.0859C136.641 78.1797 136.793 78.3555 136.863 78.6133C136.934 79.3164 136.969 80.1016 136.969 80.9688C136.992 81.8125 137.004 82.6562 137.004 83.5C137.73 83.5 138.445 83.4766 139.148 83.4297C139.852 83.3594 140.52 83.2773 141.152 83.1836C141.41 83.1836 141.609 83.3359 141.75 83.6406C141.914 83.9453 141.996 84.2617 141.996 84.5898C141.996 84.8477 141.926 85.0938 141.785 85.3281C141.645 85.5391 141.41 85.668 141.082 85.7148C140.637 85.7852 140.086 85.8555 139.43 85.9258C138.773 85.9727 138.059 86.0195 137.285 86.0664C136.535 86.1133 135.762 86.1484 134.965 86.1719C134.168 86.1953 133.418 86.207 132.715 86.207C131.965 86.207 131.344 86.1953 130.852 86.1719C130.383 86.125 129.996 86.0547 129.691 85.9609C129.41 85.8438 129.211 85.7031 129.094 85.5391C128.977 85.3516 128.918 85.1055 128.918 84.8008C128.918 84.4492 129.012 84.1562 129.199 83.9219C129.41 83.6641 129.668 83.5352 129.973 83.5352C130.348 83.5352 130.746 83.5469 131.168 83.5703C131.59 83.5938 132.035 83.6055 132.504 83.6055H134.402C134.402 82.7617 134.379 81.8945 134.332 81.0039C134.285 80.1133 134.262 79.3867 134.262 78.8242ZM135 88.7031C135.258 88.3984 135.574 88.2461 135.949 88.2461C136.441 88.2461 136.922 88.3633 137.391 88.5977C137.859 88.8086 138.27 89.0898 138.621 89.4414C138.996 89.793 139.289 90.2031 139.5 90.6719C139.711 91.1406 139.816 91.6211 139.816 92.1133C139.816 92.9336 139.652 93.6133 139.324 94.1523C139.02 94.6914 138.633 95.125 138.164 95.4531C137.695 95.7578 137.203 95.9688 136.688 96.0859C136.172 96.2031 135.715 96.2617 135.316 96.2617C134.801 96.2617 134.297 96.1797 133.805 96.0156C133.312 95.8516 132.879 95.6055 132.504 95.2773C132.129 94.9492 131.824 94.5508 131.59 94.082C131.379 93.5898 131.273 93.0156 131.273 92.3594C131.273 91.5859 131.496 90.8359 131.941 90.1094C132.387 89.3828 133.02 88.832 133.84 88.457C133.887 88.4336 133.934 88.4219 133.98 88.4219C134.027 88.3984 134.086 88.3867 134.156 88.3867C134.273 88.3867 134.402 88.4219 134.543 88.4922C134.684 88.5391 134.836 88.6094 135 88.7031ZM135.281 90.4609C135.047 90.6016 134.848 90.7305 134.684 90.8477C134.543 90.9648 134.426 91.0938 134.332 91.2344C134.238 91.3516 134.168 91.5039 134.121 91.6914C134.074 91.8555 134.051 92.0898 134.051 92.3945C134.051 92.8164 134.156 93.168 134.367 93.4492C134.602 93.707 134.953 93.8359 135.422 93.8359C135.539 93.8359 135.691 93.8242 135.879 93.8008C136.066 93.7539 136.254 93.6836 136.441 93.5898C136.629 93.4727 136.781 93.3086 136.898 93.0977C137.039 92.8867 137.109 92.6172 137.109 92.2891C137.109 91.9141 137.051 91.6211 136.934 91.4102C136.816 91.1758 136.664 91 136.477 90.8828C136.312 90.7656 136.113 90.6836 135.879 90.6367C135.668 90.5664 135.469 90.5078 135.281 90.4609ZM145.09 79.8789C144.902 79.6445 144.809 79.4336 144.809 79.2461C144.809 78.9414 144.949 78.6719 145.23 78.4375C145.535 78.1797 145.875 78.0508 146.25 78.0508C146.672 78.0508 147.035 78.2148 147.34 78.543L148.605 80.3008C148.957 80.793 149.227 81.3086 149.414 81.8477C149.602 82.3633 149.73 82.9023 149.801 83.4648C149.871 84.0039 149.918 84.5547 149.941 85.1172C149.965 85.6562 150 86.1953 150.047 86.7344C150.914 86.7578 151.816 86.7695 152.754 86.7695C153.691 86.7695 154.512 86.7695 155.215 86.7695C155.496 86.8164 155.695 86.9336 155.812 87.1211C155.953 87.3086 156.023 87.5195 156.023 87.7539C156.023 88.1523 155.895 88.5273 155.637 88.8789C155.379 89.207 155.051 89.3711 154.652 89.3711C153.902 89.3711 153.129 89.3828 152.332 89.4062C151.559 89.4297 150.797 89.4414 150.047 89.4414C150.023 90.4961 149.953 91.5156 149.836 92.5C149.742 93.4844 149.613 94.4336 149.449 95.3477C149.379 95.793 149.18 96.1094 148.852 96.2969C148.547 96.4609 148.23 96.543 147.902 96.543C147.574 96.543 147.293 96.4727 147.059 96.332C146.848 96.168 146.742 95.9336 146.742 95.6289C146.742 95.5352 146.754 95.4648 146.777 95.418C146.988 94.3633 147.141 93.2383 147.234 92.043C147.328 90.8242 147.375 89.6406 147.375 88.4922C147.375 87.2969 147.328 86.1953 147.234 85.1875C147.164 84.1797 147.059 83.3242 146.918 82.6211C146.707 82.1992 146.438 81.7656 146.109 81.3203C145.805 80.8516 145.465 80.3711 145.09 79.8789ZM164.18 88.1758C164.812 88.9023 165.551 89.5117 166.395 90.0039C167.262 90.4961 168.27 90.918 169.418 91.2695C169.699 91.3633 169.898 91.5156 170.016 91.7266C170.133 91.9141 170.191 92.1016 170.191 92.2891C170.191 92.5703 170.074 92.8398 169.84 93.0977C169.605 93.3555 169.324 93.4844 168.996 93.4844C168.48 93.4844 167.953 93.4023 167.414 93.2383C166.875 93.0508 166.348 92.8281 165.832 92.5703C165.316 92.2891 164.824 91.9844 164.355 91.6562C163.91 91.3047 163.512 90.9648 163.16 90.6367C162.996 90.918 162.762 91.2695 162.457 91.6914C162.152 92.0898 161.812 92.4883 161.438 92.8867C161.062 93.2617 160.664 93.5898 160.242 93.8711C159.844 94.1523 159.457 94.293 159.082 94.293C158.73 94.293 158.438 94.1758 158.203 93.9414C157.969 93.707 157.852 93.4258 157.852 93.0977C157.852 92.7227 158.004 92.418 158.309 92.1836C159.082 91.5508 159.703 90.9414 160.172 90.3555C160.664 89.7695 161.039 89.1719 161.297 88.5625C161.578 87.9297 161.766 87.25 161.859 86.5234C161.977 85.7969 162.035 84.9648 162.035 84.0273C162.035 83.6055 162.164 83.3008 162.422 83.1133C162.68 82.9258 162.973 82.832 163.301 82.832C163.629 82.832 163.934 82.9609 164.215 83.2188C164.496 83.4531 164.637 83.7695 164.637 84.168C164.637 84.7773 164.602 85.4219 164.531 86.1016C164.484 86.7812 164.367 87.4727 164.18 88.1758ZM171.316 78.332C171.152 78.1445 171.07 77.9219 171.07 77.6641C171.07 77.3359 171.211 77.0312 171.492 76.75C171.773 76.4688 172.113 76.3281 172.512 76.3281C172.863 76.3281 173.203 76.4805 173.531 76.7852C173.859 77.0664 174.164 77.4414 174.445 77.9102C174.727 78.3555 174.973 78.8477 175.184 79.3867C175.418 79.9023 175.605 80.3945 175.746 80.8633C175.91 81.4023 176.039 82.0586 176.133 82.832C176.25 83.582 176.332 84.3906 176.379 85.2578C176.449 86.1016 176.496 86.9805 176.52 87.8945C176.543 88.8086 176.555 89.6875 176.555 90.5312C176.555 91.1406 176.555 91.7383 176.555 92.3242C176.578 92.8867 176.555 93.4023 176.484 93.8711C176.414 94.3398 176.262 94.7148 176.027 94.9961C175.816 95.2773 175.488 95.418 175.043 95.418C174.691 95.418 174.387 95.3359 174.129 95.1719C173.895 94.9844 173.777 94.7148 173.777 94.3633C173.777 93.6836 173.777 92.9805 173.777 92.2539C173.801 91.5273 173.812 90.7891 173.812 90.0391C173.812 89.5703 173.812 89.1016 173.812 88.6328C173.812 88.1406 173.801 87.6602 173.777 87.1914C173.332 87.2617 172.852 87.3438 172.336 87.4375C171.844 87.5078 171.352 87.5781 170.859 87.6484C170.367 87.7188 169.91 87.7773 169.488 87.8242C169.09 87.8477 168.762 87.8594 168.504 87.8594C168.152 87.8594 167.883 87.7188 167.695 87.4375C167.508 87.1328 167.414 86.8164 167.414 86.4883C167.414 86.2539 167.484 86.0312 167.625 85.8203C167.789 85.6094 168.035 85.4805 168.363 85.4336L170.859 85.1172C171.305 85.0703 171.75 85.0234 172.195 84.9766C172.664 84.9062 173.133 84.8359 173.602 84.7656C173.531 84.1797 173.461 83.6523 173.391 83.1836C173.32 82.6914 173.203 82.2109 173.039 81.7422C172.898 81.25 172.688 80.7344 172.406 80.1953C172.148 79.6562 171.785 79.0352 171.316 78.332ZM179.262 78.6836C179.191 78.5195 179.156 78.3555 179.156 78.1914C179.156 77.8164 179.285 77.5117 179.543 77.2773C179.824 77.0195 180.141 76.8906 180.492 76.8906C180.984 76.8906 181.383 77.125 181.688 77.5938C182.016 78.0625 182.273 78.6016 182.461 79.2109C182.648 79.7969 182.777 80.3594 182.848 80.8984C182.918 81.4141 182.965 81.7305 182.988 81.8477C183.105 82.5977 183.176 83.4648 183.199 84.4492C183.246 85.4102 183.27 86.418 183.27 87.4727C183.27 88.5273 183.211 89.582 183.094 90.6367C182.977 91.668 182.848 92.6289 182.707 93.5195C182.59 93.9648 182.367 94.2578 182.039 94.3984C181.734 94.5391 181.418 94.6094 181.09 94.6094C180.785 94.5625 180.527 94.457 180.316 94.293C180.105 94.1289 180 93.8945 180 93.5898C180 93.4961 180.012 93.4258 180.035 93.3789C180.316 91.668 180.457 89.8984 180.457 88.0703C180.457 87.0859 180.457 86.207 180.457 85.4336C180.48 84.6602 180.457 83.9219 180.387 83.2188C180.34 82.5156 180.223 81.8125 180.035 81.1094C179.871 80.3828 179.613 79.5742 179.262 78.6836ZM199.266 78.0156C199.477 77.8047 199.723 77.6992 200.004 77.6992C200.613 77.7695 201.176 77.957 201.691 78.2617C202.23 78.543 202.699 78.8945 203.098 79.3164C203.496 79.7148 203.812 80.1719 204.047 80.6875C204.281 81.1797 204.398 81.6719 204.398 82.1641C204.398 82.9141 204.258 83.582 203.977 84.168C203.695 84.7539 203.332 85.2461 202.887 85.6445C202.441 86.043 201.938 86.3477 201.375 86.5586C200.812 86.7461 200.262 86.8398 199.723 86.8398C199.137 86.8398 198.562 86.7344 198 86.5234C197.438 86.3125 196.934 86.0195 196.488 85.6445C196.066 85.2461 195.715 84.7773 195.434 84.2383C195.176 83.6992 195.047 83.1016 195.047 82.4453C195.047 82.0469 195.094 81.625 195.188 81.1797C195.305 80.7344 195.48 80.3008 195.715 79.8789C195.949 79.457 196.242 79.082 196.594 78.7539C196.969 78.4023 197.402 78.1211 197.895 77.9102C198.012 77.8633 198.176 77.8398 198.387 77.8398C198.668 77.8398 198.961 77.8984 199.266 78.0156ZM199.336 79.9492C198.82 80.3008 198.434 80.6641 198.176 81.0391C197.941 81.4141 197.824 81.918 197.824 82.5508C197.824 83.0195 198.012 83.4414 198.387 83.8164C198.762 84.1914 199.301 84.3789 200.004 84.3789C200.168 84.3789 200.344 84.332 200.531 84.2383C200.719 84.1211 200.895 83.9805 201.059 83.8164C201.223 83.6289 201.363 83.4297 201.48 83.2188C201.598 82.9844 201.656 82.7383 201.656 82.4805C201.656 81.7305 201.457 81.168 201.059 80.793C200.66 80.418 200.086 80.1367 199.336 79.9492ZM190.371 93.9414C190.934 94.0117 191.578 94.082 192.305 94.1523C193.031 94.2227 193.793 94.2695 194.59 94.293C194.59 93.8711 194.578 93.4258 194.555 92.957C194.555 92.4883 194.543 92.0195 194.52 91.5508C194.496 91.0586 194.473 90.6016 194.449 90.1797C194.449 89.7578 194.449 89.3828 194.449 89.0547C194.449 88.8203 194.59 88.6445 194.871 88.5273C195.152 88.3867 195.457 88.3164 195.785 88.3164C196.23 88.3164 196.559 88.4219 196.77 88.6328C196.98 88.8438 197.121 89.1133 197.191 89.4414C197.262 89.7461 197.285 90.0977 197.262 90.4961C197.238 90.8945 197.227 91.2695 197.227 91.6211C197.227 92.0664 197.238 92.5352 197.262 93.0273C197.285 93.4961 197.285 93.9531 197.262 94.3984C197.66 94.4453 198.07 94.4688 198.492 94.4688C198.914 94.4688 199.348 94.4688 199.793 94.4688C200.215 94.4688 200.637 94.4688 201.059 94.4688C201.48 94.4688 201.914 94.4453 202.359 94.3984C202.359 93.9766 202.348 93.5312 202.324 93.0625C202.324 92.5938 202.312 92.125 202.289 91.6562C202.289 91.1875 202.277 90.7422 202.254 90.3203C202.254 89.8984 202.254 89.5352 202.254 89.2305C202.254 88.9727 202.395 88.7617 202.676 88.5977C202.98 88.4102 203.297 88.3164 203.625 88.3164C204.047 88.3164 204.352 88.4219 204.539 88.6328C204.727 88.8438 204.844 89.1133 204.891 89.4414C204.961 89.7695 204.984 90.1211 204.961 90.4961C204.961 90.8711 204.961 91.2227 204.961 91.5508C204.961 91.9961 204.973 92.4531 204.996 92.9219C205.02 93.3906 205.02 93.8477 204.996 94.293C205.98 94.293 206.965 94.2227 207.949 94.082C208.254 93.8242 208.559 93.6367 208.863 93.5195C209.191 93.4023 209.566 93.2617 209.988 93.0977C210.293 93.168 210.539 93.3906 210.727 93.7656C210.914 94.1172 211.008 94.4688 211.008 94.8203C211.008 95.1719 210.926 95.4883 210.762 95.7695C210.598 96.0508 210.34 96.2148 209.988 96.2617C208.371 96.5195 206.684 96.7188 204.926 96.8594C203.191 96.9766 201.445 97.0352 199.688 97.0352C197.93 97.0352 196.242 97 194.625 96.9297C193.008 96.8594 191.566 96.7305 190.301 96.543C189.855 96.4961 189.551 96.3203 189.387 96.0156C189.246 95.7109 189.176 95.4062 189.176 95.1016C189.176 94.7969 189.281 94.5273 189.492 94.293C189.703 94.0586 189.996 93.9414 190.371 93.9414ZM220.043 93.168C220.348 93.168 220.77 93.1914 221.309 93.2383C221.848 93.2852 222.375 93.4375 222.891 93.6953C223.406 93.9297 223.852 94.3047 224.227 94.8203C224.602 95.3359 224.789 96.0508 224.789 96.9648C224.789 97.8086 224.496 98.5586 223.91 99.2148C223.324 99.8945 222.504 100.234 221.449 100.234C220.957 100.234 220.5 100.129 220.078 99.918C219.656 99.707 219.293 99.4375 218.988 99.1094C218.684 98.8047 218.438 98.4531 218.25 98.0547C218.086 97.6797 218.004 97.3164 218.004 96.9648C218.027 96.6367 218.086 96.3203 218.18 96.0156C218.273 95.7109 218.449 95.4648 218.707 95.2773L219.129 94.9961C219.012 94.832 218.953 94.6562 218.953 94.4688C218.953 94.1172 219.047 93.8242 219.234 93.5898C219.445 93.332 219.715 93.1914 220.043 93.168ZM220.746 95.418C220.793 95.4883 220.816 95.5938 220.816 95.7344C220.816 95.9219 220.734 96.1445 220.57 96.4023C220.406 96.6602 220.324 96.8594 220.324 97C220.324 97.2578 220.43 97.4688 220.641 97.6328C220.875 97.8203 221.109 97.9141 221.344 97.9141C221.812 97.9141 222.129 97.7969 222.293 97.5625C222.48 97.3281 222.574 97.1289 222.574 96.9648C222.574 96.6133 222.516 96.332 222.398 96.1211C222.305 95.9102 222.164 95.7578 221.977 95.6641C221.812 95.5469 221.613 95.4766 221.379 95.4531C221.168 95.4297 220.957 95.418 220.746 95.418ZM219.973 76.293V76.1875C219.973 75.9297 220.113 75.7305 220.395 75.5898C220.676 75.4258 221.004 75.3438 221.379 75.3438C221.707 75.3438 222.035 75.4023 222.363 75.5195C222.691 75.6367 222.949 75.8242 223.137 76.082C223.137 76.4102 223.113 76.6914 223.066 76.9258C223.043 77.1602 223.02 77.3594 222.996 77.5234L222.715 78.543C222.785 79.2695 222.844 79.8672 222.891 80.3359C222.961 80.8047 223.02 81.25 223.066 81.6719C223.113 82.0703 223.148 82.4922 223.172 82.9375C223.195 83.3828 223.207 83.9453 223.207 84.625C223.207 85.3984 223.184 86.1719 223.137 86.9453C223.09 87.7188 222.996 88.4219 222.855 89.0547C222.738 89.6641 222.551 90.168 222.293 90.5664C222.059 90.9414 221.742 91.1289 221.344 91.1289C221.016 91.1289 220.723 91.0352 220.465 90.8477C220.207 90.6367 220.078 90.4023 220.078 90.1445C220.078 90.0508 220.09 89.9805 220.113 89.9336C220.301 89.3008 220.418 88.7148 220.465 88.1758C220.512 87.6367 220.535 87.1328 220.535 86.6641C220.535 85.375 220.512 84.3438 220.465 83.5703C220.441 82.7734 220.406 82.0469 220.359 81.3906C220.312 80.7109 220.254 80.0078 220.184 79.2812C220.113 78.5312 220.043 77.5352 219.973 76.293Z" fill="#313567"/>
<path d="M0 217.757C0 217.622 0.00076052 217.494 0.00707944 217.359C0.183794 213.581 4.62909 156.185 111.5 163.439C222 170.939 477 288.439 634 276.439C718.357 269.991 775.865 253.472 811.022 239.567C830.059 232.037 855 246.387 855 266.859V382.554C855 396.361 843.807 407.554 830 407.554H427.5H25C11.1929 407.554 0 396.361 0 382.554V217.757Z" fill="#F0F8FF"/>
<path d="M290.706 319.096C311.616 198.827 362.229 67.0382 416 26.054C498 -36.446 557.501 279.205 577.001 386.204C582.029 413.797 485.216 404.558 328.001 402.204C296.834 404.416 235.801 398.904 229.001 389.704C220.501 378.204 146.5 287 179.5 263.5C187.571 257.752 203.762 260.247 222.606 269C225.514 270.351 220 260.935 226.5 261.5C238 262.5 246.471 282.618 249.5 284.5C264.423 293.771 278.589 305.368 290.706 319.096Z" fill="#EDE7FF"/>
<path d="M598.5 401.705C582.5 358.705 585.667 324.388 556 288.054L492.5 395.705C571 395.705 556 401.705 598.5 401.705Z" fill="#EDE7FF"/>
<path d="M350 137.439C337.5 149.939 301.999 149.439 323 84.4389C340.936 28.9241 387.5 6.93886 428.963 16.8527C470.426 12.2765 559.891 65.672 531 148.439C512.5 201.438 460 116.939 460 110.939C449.677 126.821 440.47 100.333 437.075 84.7824C437.436 87.3477 434.84 94.98 421.5 107.939C407.5 121.539 403 102.272 402.5 90.9389C399.667 100.439 390.7 120.939 377.5 126.939C366.239 132.058 367.035 115.947 369.582 103.446C366.307 113.709 358.153 129.286 350 137.439Z" fill="#313567"/>
<path d="M522.5 145.439C510.9 143.439 504.333 160.272 502.5 168.939C510.167 175.939 526.2 188.539 529 182.939C532.5 175.939 537 147.939 522.5 145.439Z" fill="#EDE7FF"/>
<path d="M318 113.437C315.5 64.9366 349.501 31.3715 386 23.9366M430.73 30.7118C413.389 36.7716 379.82 60.0429 384.274 104.65M358.407 81.4248C345 81.4249 334.168 112.468 340 128.629M442.843 38.1467C443.524 45.6232 446.649 65.3821 453.706 84.6064M484.001 58.7865C487.977 66.9921 496.108 86.2046 496.825 97.4102M525.314 87.9835C517.948 66.1599 505.336 49.8583 490.886 38.1467M529.184 101.586C531.882 114.002 535.288 140.519 527.323 147.254M394 16.9367C419.5 11.9365 448.465 10.278 480.554 30.7118" stroke="#EDE7FF" stroke-width="3" stroke-linecap="round" stroke-linejoin="round"/>
<path d="M228.434 299.775C225.194 289.087 219.773 266.429 224.012 261.295C228.25 256.161 235.084 265.281 237.97 270.482" stroke="#313567" stroke-width="3" stroke-linecap="round" stroke-linejoin="round"/>
<path d="M367.501 348.437C294.001 337.026 287 272.437 315 221.937C285 260.437 294.5 285.5 290 315.5C290.306 320.195 255.544 278.372 247 284.5C252 288.5 251 310.5 235.5 320.5C211.789 335.797 195.5 339 192 337C201 360.5 215.834 378.437 231.5 403.437C409 429.437 430.501 421.937 599.001 406.937C627.501 395.937 569.001 295.437 556.001 275.437C563.001 362.437 477.001 365.437 367.501 348.437Z" fill="#FFD16C"/>
<path d="M537.892 223.643C477.492 238.043 443 319.437 419.5 354.937C421.333 356.103 483.892 359.043 515.892 348.643C555.892 335.643 613.392 205.643 537.892 223.643Z" fill="white"/>
<path d="M314 218.437C343 208.657 377.5 313.437 418 354.937C416.167 356.103 364.387 356.324 335 339.937C304.144 322.73 270.999 232.937 314 218.437Z" fill="white"/>
<path d="M502 168.046C504.616 159.82 512.575 143.696 523.48 145.012C537.112 146.658 533.394 189.846 519.35 195.194C505.305 200.541 506.131 175.45 512.74 170.103C518.028 165.825 517.422 173.257 516.458 177.507" stroke="#313567" stroke-width="3" stroke-linecap="round" stroke-linejoin="round"/>
<path d="M301 226.937C292.667 238.77 292.5 267.437 297 284.437C301.613 301.864 324.5 349.937 370 348.437" stroke="#313567" stroke-width="3" stroke-linecap="round" stroke-linejoin="round"/>
<path d="M289 316.343C293.199 321.498 305.838 340.763 312.974 363.239M317.829 387.302C317.257 379.198 315.446 371.025 312.974 363.239M312.974 363.239C319.159 376.076 335.32 390.384 352.334 398.252" stroke="#313567" stroke-width="3" stroke-linecap="round" stroke-linejoin="round"/>
<path d="M552.5 272.437C561 289.937 553.5 347.937 492 353.437" stroke="#313567" stroke-width="3" stroke-linecap="round" stroke-linejoin="round"/>
<path d="M411 177.937C406.5 180.603 402.5 186.937 402.5 190.437C402.5 196.437 409.667 197.437 413.5 195.437" stroke="#313567" stroke-width="3" stroke-linecap="round" stroke-linejoin="round"/>
<circle cx="452" cy="168.937" r="29.5" fill="#313567" stroke="#313567" stroke-width="3"/>
<circle cx="370" cy="168.937" r="29.5" fill="#313567" stroke="#313567" stroke-width="3"/>
<path d="M432.5 162.792C437.333 159.626 448.5 160.792 458 164.177" stroke="#313567" stroke-width="3" stroke-linecap="round" stroke-linejoin="round"/>
<path d="M363 162.792C367.833 159.626 379 160.792 388.5 164.177" stroke="#313567" stroke-width="3" stroke-linecap="round" stroke-linejoin="round"/>
<path d="M326 182.437C314.5 225.437 349 261.937 363.5 280.437C386.674 310.004 411.058 339.95 416.499 356.437C416.499 392.937 412.999 395.83 412.999 420.937" stroke="#313567" stroke-width="3" stroke-linecap="round" stroke-linejoin="round"/>
<path d="M509 189.937C512.666 211.27 498.7 248.237 469.5 279.437C445.721 304.844 429.5 338.937 418 355.937C418 372.937 413.5 393.729 413.5 421.437" stroke="#313567" stroke-width="3" stroke-linecap="round" stroke-linejoin="round"/>
<path d="M518.5 174.437C518.5 178.08 516.19 180.437 514 180.437C511.81 180.437 509.5 178.08 509.5 174.437C509.5 170.793 511.81 168.437 514 168.437C516.19 168.437 518.5 170.793 518.5 174.437Z" fill="#313567" stroke="#313567" stroke-width="3" stroke-linejoin="round"/>
<path d="M517 348.937C511.667 361.937 501.2 390.037 502 398.437" stroke="#313567" stroke-width="3" stroke-linecap="round" stroke-linejoin="round"/>
<path d="M202.796 340.013C217.085 336.347 247.248 321.831 253.587 293.093" stroke="#313567" stroke-width="3" stroke-linecap="round" stroke-linejoin="round"/>
<path d="M395.5 183.937C400.333 177.437 415.8 170.937 427 184.937" stroke="#313567" stroke-width="3" stroke-linecap="round" stroke-linejoin="round"/>
<path d="M481.003 173.937C486.003 171.103 497.103 165.837 501.503 167.437M340.503 163.437C338.836 161.937 337 160.937 335.5 156.437" stroke="#313567" stroke-width="3" stroke-linecap="round" stroke-linejoin="round"/>
<path d="M355 184.437L385.5 153.937M373.5 184.437L388.5 169.437" stroke="#EDE7FF" stroke-width="3" stroke-linecap="round" stroke-linejoin="round"/>
<path d="M438 184.437L468.5 153.937M456.5 184.437L471.5 169.437" stroke="#EDE7FF" stroke-width="3" stroke-linecap="round" stroke-linejoin="round"/>
<path d="M511 234.937C537 218.437 585.6 207.837 572 261.437" stroke="#313567" stroke-width="3" stroke-linecap="round" stroke-linejoin="round"/>
<path d="M177.938 264.263C172.446 271.41 166.245 294.165 185.376 328.006" stroke="#313567" stroke-width="3" stroke-linecap="round" stroke-linejoin="round"/>
<path d="M134 405.937C134 405.937 141.479 405.937 152.5 405.937M753.5 405.937C753.5 405.937 746.299 405.937 735 405.937M722 405.937C712.448 405.937 701.435 405.937 690 405.937M675.5 405.937C642.874 405.937 610.347 405.937 601 405.937C580.5 405.937 450.5 422.937 410 421.437C369.5 419.937 259 405.937 233.5 405.937C219.921 405.937 192.588 405.937 170 405.937" stroke="#313567" stroke-width="3" stroke-linecap="round" stroke-linejoin="round"/>
<path d="M428 220.5C428 224.642 417.508 232 409.5 232C401.492 232 391.5 224.642 391.5 220.5C391.5 216.358 401.492 217 409.5 217C417.508 217 428 216.358 428 220.5Z" stroke="#313567" stroke-width="3" stroke-linecap="round" stroke-linejoin="round"/>
</svg>
